<?xml version="1.0" standalone="no"?>
<!DOCTYPE svg PUBLIC "-//W3C//DTD SVG 20010904//EN"
 "http://www.w3.org/TR/2001/REC-SVG-20010904/DTD/svg10.dtd">
<svg version="1.0" xmlns="http://www.w3.org/2000/svg"
 width="393.000000pt" height="89.000000pt" viewBox="0 0 393.000000 89.000000"
 preserveAspectRatio="xMidYMid meet">
<metadata>
Created by potrace 1.16, written by Peter Selinger 2001-2019
</metadata>
<g transform="translate(0.000000,89.000000) scale(0.100000,-0.100000)"
fill="#000000" stroke="none">
<path d="M249 657 c-3 -86 -8 -129 -18 -140 -16 -20 -62 -22 -79 -5 -9 9 -12
2 -12 -35 l0 -47 50 0 c110 0 130 33 130 219 l0 131 -34 0 -34 0 -3 -123z"/>
<path d="M480 605 l0 -175 100 0 100 0 0 35 0 35 -60 0 -60 0 0 35 0 35 61 0
60 0 -3 33 c-3 32 -4 32 -60 35 l-58 3 0 34 0 35 60 0 60 0 0 35 0 35 -100 0
-100 0 0 -175z"/>
<path d="M893 761 c-38 -24 -53 -49 -53 -91 0 -43 37 -74 115 -95 69 -19 91
-35 81 -60 -15 -40 -103 -38 -121 3 -7 17 -18 22 -47 22 -47 0 -51 -23 -12
-69 68 -81 238 -55 259 40 14 64 -24 105 -120 128 -77 19 -99 50 -51 72 32 15
73 4 81 -21 5 -15 15 -20 44 -20 35 0 38 2 34 24 -3 13 -18 37 -34 52 -39 38
-128 45 -176 15z"/>
<path d="M1321 763 c-61 -30 -74 -113 -24 -153 13 -10 50 -26 81 -35 65 -19
82 -30 82 -55 0 -45 -94 -45 -122 0 -9 14 -23 20 -50 20 -43 0 -43 1 -24 -45
26 -61 123 -90 201 -60 54 20 75 47 75 96 0 54 -25 77 -115 107 -43 15 -80 32
-82 38 -6 18 26 44 53 44 14 0 35 -11 48 -25 16 -17 34 -25 56 -25 30 0 32 2
25 27 -9 37 -24 53 -62 70 -43 18 -101 16 -142 -4z"/>
<path d="M1690 606 l0 -176 40 0 40 0 -2 173 -3 172 -37 3 -38 3 0 -175z"/>
<path d="M1930 605 l0 -175 100 0 100 0 0 35 0 35 -65 0 -65 0 0 35 0 35 60 0
60 0 0 35 0 35 -61 0 -60 0 3 33 3 32 63 3 63 3 -3 32 -3 32 -97 3 -98 3 0
-176z"/>
<path d="M2625 766 c-73 -33 -109 -94 -103 -177 10 -133 146 -203 262 -135 45
27 86 90 86 134 0 21 -4 22 -85 22 -84 0 -85 0 -85 -25 0 -22 4 -25 40 -25 63
0 50 -40 -20 -60 -75 -22 -144 53 -121 130 16 53 44 75 98 75 34 0 49 -5 63
-22 14 -17 29 -23 59 -23 23 0 41 4 41 10 0 18 -60 78 -94 94 -41 19 -100 20
-141 2z"/>
<path d="M3022 635 c3 -142 3 -145 30 -172 23 -22 38 -28 91 -31 47 -3 73 0
96 13 50 25 61 65 61 210 l0 126 -37 -3 c-25 -2 -38 -8 -39 -18 -1 -8 -2 -63
-2 -122 -2 -82 -6 -110 -18 -122 -22 -22 -70 -20 -94 4 -18 18 -20 33 -20 140
l0 120 -36 0 -35 0 3 -145z"/>
<path d="M3544 760 c-103 -51 -131 -183 -57 -271 34 -40 79 -59 138 -59 77 0
140 48 165 126 35 104 -56 223 -170 224 -19 0 -53 -9 -76 -20z m147 -89 c43
-43 40 -92 -6 -138 -32 -32 -40 -35 -73 -30 -24 4 -47 17 -66 38 -24 27 -27
38 -23 73 12 84 108 117 168 57z"/>
<path d="M1505 220 c-26 -29 -24 -79 4 -102 70 -56 164 39 101 102 -26 26 -81
26 -105 0z"/>
<path d="M2341 214 c-12 -15 -21 -34 -21 -44 0 -34 39 -70 75 -70 36 0 75 36
75 70 0 10 -9 29 -21 44 -28 36 -80 36 -108 0z"/>
</g>
</svg>
